<?xml version="1.0" encoding="iso-8859-1"?>
<!-- Generator: Adobe Illustrator 19.1.0, SVG Export Plug-In . SVG Version: 6.00 Build 0)  -->
<svg xmlns="http://www.w3.org/2000/svg" xmlns:xlink="http://www.w3.org/1999/xlink" version="1.1" id="Capa_1" x="0px" y="0px" viewBox="0 0 33.008 33.008" style="enable-background:new 0 0 33.008 33.008;" xml:space="preserve" width="512px" height="512px">
<g>
	<path d="M25.37,4.854c-0.451,0-0.861,0-1.316,0.071c-1.873-2.197-4.647-3.49-7.549-3.49   c-2.946,0-5.746,1.323-7.62,3.573C8.485,4.925,8.053,4.854,7.639,4.854C3.426,4.854,0,8.281,0,12.492   c0,3.863,2.882,7.065,6.609,7.569v8.595c0,1.608,1.308,2.917,2.917,2.917h13.958c1.608,0,2.916-1.309,2.916-2.917v-8.595   c3.726-0.505,6.609-3.706,6.609-7.569C33.008,8.281,29.581,4.854,25.37,4.854z M25.37,18.071c-0.195,0-0.368,0.069-0.524,0.164   c-1.146-0.008-2.234-0.347-3.147-0.984c-0.607-0.424-1.107-0.956-1.487-1.583c-0.295-0.486-0.929-0.642-1.415-0.347   c-0.487,0.296-0.642,0.929-0.346,1.415c0.529,0.873,1.225,1.614,2.068,2.204c1.123,0.785,2.437,1.22,3.82,1.317v8.399   c0,0.473-0.384,0.858-0.856,0.858H21.65v-6.928c0-0.379-0.308-0.686-0.688-0.686c-0.378,0-0.687,0.308-0.687,0.686v6.928h-1.327   l-0.017-3.657c-0.002-0.379-0.309-0.683-0.688-0.683c0,0-0.001,0-0.002,0c-0.379,0.002-0.686,0.31-0.684,0.69l0.016,3.65h-1.297   v-4.476c0-0.38-0.307-0.686-0.686-0.686s-0.687,0.307-0.687,0.686v4.476h-5.38c-0.473,0-0.856-0.385-0.856-0.858v-9.555   c0-0.569-0.462-1.03-1.03-1.03c-3.076,0-5.578-2.503-5.578-5.579c0-3.076,2.502-5.578,5.578-5.578c0.384,0,0.917,0.128,1.346,0.23   l0.07,0.017C9.462,7.258,9.886,7.1,10.129,6.762c1.474-2.046,3.857-3.268,6.375-3.268c2.479,0,4.841,1.193,6.318,3.191   c0.259,0.351,0.71,0.501,1.126,0.374c0.457-0.139,0.784-0.144,1.421-0.144c3.076,0,5.578,2.502,5.578,5.578   C30.948,15.568,28.445,18.071,25.37,18.071z" fill="#FFFFFF"/>
	<path d="M17.579,22.586v1.221c0,0.38,0.308,0.687,0.687,0.687c0.379,0,0.687-0.307,0.687-0.687v-1.221   c0-0.379-0.308-0.686-0.687-0.686C17.886,21.899,17.579,22.207,17.579,22.586z" fill="#FFFFFF"/>
</g>
<g>
</g>
<g>
</g>
<g>
</g>
<g>
</g>
<g>
</g>
<g>
</g>
<g>
</g>
<g>
</g>
<g>
</g>
<g>
</g>
<g>
</g>
<g>
</g>
<g>
</g>
<g>
</g>
<g>
</g>
</svg>
